HIERARCHY
ROOT pelvis
{
  OFFSET 0 100 0
  CHANNELS 6 Xposition Yposition Zposition Zrotation Xrotation Yrotation
  JOINT pelvis_right_femur
  {
    OFFSET -10.78128 -3.44521 -0.5502486
    CHANNELS 3 Zrotation Xrotation Yrotation
    JOINT right_femur_tibia
    {
      OFFSET -0.8047443 -44.0398 -0.1307829
      CHANNELS 3 Zrotation Xrotation Yrotation
      JOINT right_tibia_foot
      {
        OFFSET 3.006224 -47.83518 -5
        CHANNELS 3 Zrotation Xrotation Yrotation
        End Site
        {
          OFFSET 0 -5 15
        }
      }
    }
  }
  JOINT pelvis_left_femur
  {
    OFFSET 10.78128 -3.44521 -0.5502486
    CHANNELS 3 Zrotation Xrotation Yrotation
    JOINT left_femur_tibia
    {
      OFFSET 0.8047443 -44.0398 -0.1307829
      CHANNELS 3 Zrotation Xrotation Yrotation
      JOINT left_tibia_foot
      {
        OFFSET -4.370144 -48.10324 -4.275266
        CHANNELS 3 Zrotation Xrotation Yrotation
        End Site
        {
          OFFSET 0 -5 15
        }
      }
    }
  }
  JOINT pelvis_spine1
  {
    OFFSET 0 6.468898 -3.129235
    CHANNELS 3 Zrotation Xrotation Yrotation
    JOINT spine1
    {
      OFFSET 0 23.15396 4.99043
      CHANNELS 3 Zrotation Xrotation Yrotation
      JOINT spine2
      {
        OFFSET 0 20.79997 -5.064912
        CHANNELS 3 Zrotation Xrotation Yrotation
        JOINT neck
        {
          OFFSET 0 14.38658 9.616178
          CHANNELS 3 Zrotation Xrotation Yrotation
          End Site
          {
            OFFSET 0 20 0
          }
        }
      }
      JOINT right_manubrium
      {
        OFFSET -5.722621 16.35077 3.967754
        CHANNELS 3 Zrotation Xrotation Yrotation
        JOINT right_clavicle
        {
          OFFSET -13.16364 1.694482 -4.693211
          CHANNELS 3 Zrotation Xrotation Yrotation
          JOINT right_humerus
          {
            OFFSET -28.5034 -0.3100689 -2.792744
            CHANNELS 3 Zrotation Xrotation Yrotation
            JOINT right_radius
            {
              OFFSET -25.15693 0.02248979 -1.271978
              CHANNELS 3 Zrotation Xrotation Yrotation
              End Site
              {
                OFFSET -15 0 0
              }
            }
          }
        }
      }
      JOINT left_manubrium
      {
        OFFSET 5.722621 16.35077 3.967754
        CHANNELS 3 Zrotation Xrotation Yrotation
        JOINT left_clavicle
        {
          OFFSET 13.16364 1.694482 -4.693211
          CHANNELS 3 Zrotation Xrotation Yrotation
          JOINT left_humerus
          {
            OFFSET 29.39168 -1.063119 -2.237045
            CHANNELS 3 Zrotation Xrotation Yrotation
            JOINT left_radius
            {
              OFFSET 24.59957 -0.9528479 0.9047498
              CHANNELS 3 Zrotation Xrotation Yrotation
              End Site
              {
                OFFSET 15 -0 -0
              }
            }
          }
        }
      }
    }
  }
}
MOTION
Frames: 11
Frame Time: 0.0416666666667
-1064.125 114.5526 -458.1652 9.207147 1.928428 109.1998 6.922653 12.69147 2.406529 -0 18.6069 -0 -4.550513 -10.11683 -2.229419 4.256724 -15.7509 -1.233584 -0 15.21468 -0 3.231725 -0.1294062 12.1446 2.781374 -5.940593 9.322343 0.1514474 18.94913 -6.52768 0.9248261 17.01712 2.12946 -0.7307291 -19.41048 4.436247 -1.687855 -34.48556 13.91666 90.28059 9.883677 -12.16021 -0 0 32.12526 -28.50433 22.75483 19.2194 0.4461035 -24.0956 -9.358225 -94.82985 10.1746 42.00722 0 0 -16.65603 1.501733 13.3709 13.83969
-1058.903 114.5305 -461.3815 9.223566 1.847617 108.7015 6.922653 12.69147 2.406529 -0 18.6069 -0 -4.550513 -10.11683 -2.229419 4.256724 -15.7509 -1.233584 -0 15.21468 -0 3.231725 -0.1294062 12.1446 2.781374 -5.940593 9.322343 0.1514474 18.94913 -6.52768 0.9248261 17.01712 2.12946 -0.7307291 -19.41048 4.436247 -1.687855 -34.48556 13.91666 90.28059 9.883677 -12.16021 -0 0 32.12526 -28.50433 22.75483 19.2194 0.4461035 -24.0956 -9.358225 -94.82985 10.1746 42.00722 0 0 -16.65603 1.501733 13.3709 13.83969
-1053.653 114.5083 -464.5518 9.239281 1.766667 108.2032 6.922653 12.69147 2.406529 -0 18.6069 -0 -4.550513 -10.11683 -2.229419 4.256724 -15.7509 -1.233584 -0 15.21468 -0 3.231725 -0.1294062 12.1446 2.781374 -5.940593 9.322343 0.1514474 18.94913 -6.52768 0.9248261 17.01712 2.12946 -0.7307291 -19.41048 4.436247 -1.687855 -34.48556 13.91666 90.28059 9.883677 -12.16021 -0 0 32.12526 -28.50433 22.75483 19.2194 0.4461035 -24.0956 -9.358225 -94.82985 10.1746 42.00722 0 0 -16.65603 1.501733 13.3709 13.83969
-1048.374 114.4862 -467.6756 9.25429 1.685582 107.7049 6.922653 12.69147 2.406529 -0 18.6069 -0 -4.550513 -10.11683 -2.229419 4.256724 -15.7509 -1.233584 -0 15.21468 -0 3.231725 -0.1294062 12.1446 2.781374 -5.940593 9.322343 0.1514474 18.94913 -6.52768 0.9248261 17.01712 2.12946 -0.7307291 -19.41048 4.436247 -1.687855 -34.48556 13.91666 90.28059 9.883677 -12.16021 -0 0 32.12526 -28.50433 22.75483 19.2194 0.4461035 -24.0956 -9.358225 -94.82985 10.1746 42.00722 0 0 -16.65603 1.501733 13.3709 13.83969
-1043.069 114.4641 -470.7529 9.268592 1.60437 107.2066 6.922653 12.69147 2.406529 -0 18.6069 -0 -4.550513 -10.11683 -2.229419 4.256724 -15.7509 -1.233584 -0 15.21468 -0 3.231725 -0.1294062 12.1446 2.781374 -5.940593 9.322343 0.1514474 18.94913 -6.52768 0.9248261 17.01712 2.12946 -0.7307291 -19.41048 4.436247 -1.687855 -34.48556 13.91666 90.28059 9.883677 -12.16021 -0 0 32.12526 -28.50433 22.75483 19.2194 0.4461035 -24.0956 -9.358225 -94.82985 10.1746 42.00722 0 0 -16.65603 1.501733 13.3709 13.83969
-1037.737 114.442 -473.7833 9.282187 1.523038 106.7085 6.922653 12.69147 2.406529 -0 18.6069 -0 -4.550513 -10.11683 -2.229419 4.256724 -15.7509 -1.233584 -0 15.21468 -0 3.231725 -0.1294062 12.1446 2.781374 -5.940593 9.322343 0.1514474 18.94913 -6.52768 0.9248261 17.01712 2.12946 -0.7307291 -19.41048 4.436247 -1.687855 -34.48556 13.91666 90.28059 9.883677 -12.16021 -0 0 32.12526 -28.50433 22.75483 19.2194 0.4461035 -24.0956 -9.358225 -94.82985 10.1746 42.00722 0 0 -16.65603 1.501733 13.3709 13.83969
-1032.378 114.4198 -476.7666 9.295074 1.441589 106.2103 6.922653 12.69147 2.406529 -0 18.6069 -0 -4.550513 -10.11683 -2.229419 4.256724 -15.7509 -1.233584 -0 15.21468 -0 3.231725 -0.1294062 12.1446 2.781374 -5.940593 9.322343 0.1514474 18.94913 -6.52768 0.9248261 17.01712 2.12946 -0.7307291 -19.41048 4.436247 -1.687855 -34.48556 13.91666 90.28059 9.883677 -12.16021 -0 0 32.12526 -28.50433 22.75483 19.2194 0.4461035 -24.0956 -9.358225 -94.82985 10.1746 42.00722 0 0 -16.65603 1.501733 13.3709 13.83969
-1026.993 114.3977 -479.7026 9.307251 1.360032 105.7122 6.922653 12.69147 2.406529 -0 18.6069 -0 -4.550513 -10.11683 -2.229419 4.256724 -15.7509 -1.233584 -0 15.21468 -0 3.231725 -0.1294062 12.1446 2.781374 -5.940593 9.322343 0.1514474 18.94913 -6.52768 0.9248261 17.01712 2.12946 -0.7307291 -19.41048 4.436247 -1.687855 -34.48556 13.91666 90.28059 9.883677 -12.16021 -0 0 32.12526 -28.50433 22.75483 19.2194 0.4461035 -24.0956 -9.358225 -94.82985 10.1746 42.00722 0 0 -16.65603 1.501733 13.3709 13.83969
-1021.582 114.3756 -482.5911 9.318719 1.278373 105.2141 6.922653 12.69147 2.406529 -0 18.6069 -0 -4.550513 -10.11683 -2.229419 4.256724 -15.7509 -1.233584 -0 15.21468 -0 3.231725 -0.1294062 12.1446 2.781374 -5.940593 9.322343 0.1514474 18.94913 -6.52768 0.9248261 17.01712 2.12946 -0.7307291 -19.41048 4.436247 -1.687855 -34.48556 13.91666 90.28059 9.883677 -12.16021 -0 0 32.12526 -28.50433 22.75483 19.2194 0.4461035 -24.0956 -9.358225 -94.82985 10.1746 42.00722 0 0 -16.65603 1.501733 13.3709 13.83969
-1016.147 114.3534 -485.4318 9.329475 1.196616 104.716 6.922653 12.69147 2.406529 -0 18.6069 -0 -4.550513 -10.11683 -2.229419 4.256724 -15.7509 -1.233584 -0 15.21468 -0 3.231725 -0.1294062 12.1446 2.781374 -5.940593 9.322343 0.1514474 18.94913 -6.52768 0.9248261 17.01712 2.12946 -0.7307291 -19.41048 4.436247 -1.687855 -34.48556 13.91666 90.28059 9.883677 -12.16021 -0 0 32.12526 -28.50433 22.75483 19.2194 0.4461035 -24.0956 -9.358225 -94.82985 10.1746 42.00722 0 0 -16.65603 1.501733 13.3709 13.83969
-1010.686 114.3313 -488.2246 9.33952 1.11477 104.218 6.922653 12.69147 2.406529 -0 18.6069 -0 -4.550513 -10.11683 -2.229419 4.256724 -15.7509 -1.233584 -0 15.21468 -0 3.231725 -0.1294062 12.1446 2.781374 -5.940593 9.322343 0.1514474 18.94913 -6.52768 0.9248261 17.01712 2.12946 -0.7307291 -19.41048 4.436247 -1.687855 -34.48556 13.91666 90.28059 9.883677 -12.16021 -0 0 32.12526 -28.50433 22.75483 19.2194 0.4461035 -24.0956 -9.358225 -94.82985 10.1746 42.00722 0 0 -16.65603 1.501733 13.3709 13.83969
